<?xml version="1.0" encoding="utf-8"?>
<!-- Generator: Adobe Illustrator 15.0.0, SVG Export Plug-In . SVG Version: 6.00 Build 0)  -->
<!DOCTYPE svg PUBLIC "-//W3C//DTD SVG 1.1//EN" "http://www.w3.org/Graphics/SVG/1.1/DTD/svg11.dtd">
<svg version="1.1" id="Layer_1" xmlns="http://www.w3.org/2000/svg" xmlns:xlink="http://www.w3.org/1999/xlink" x="0px" y="0px"
	 width="800px" height="600px" viewBox="0 0 800 600" enable-background="new 0 0 800 600" xml:space="preserve">
<path d="M578.69,387.077l-0.766,0.31l-10.864-3.976l-0.06-0.61l-59.193-21.631c2.376-13.724,4.923-28.401,7.268-41.846l-0.316-1.477
	l5.142-29.267l0.785-1.182L455.93,175.302l-34.91,60.239l-2.031-11.753l0.285-0.323L400.231,116.11l-98.133,82.348l-31.334,11.505
	l-0.233,0.439l-12.238,4.494l-1.566,0.214l-0.113,0.04l-0.457,0.602l-9.668,3.549l-0.666-0.184l-65.799,24.149l122.079,44.077
	l111.695-40.68l0.405-0.573l0.897-0.337l-23.926,41.285l0.399,0.384l-2.912,16.646l-0.532,0.401l-1.295,7.425l0.311,0.407
	l-1.007,5.764l-0.413,0.165l-16.86,96.511l121.299-0.006l11.38,63.672l75.507-63.372l0.019-0.426l8.938-7.5l0.61-0.097
	l14.145-11.869L578.69,387.077z"/>
<path fill="#FFFFFF" d="M509.804,301.367c-1.088,5.443-2.356,11.07-9.612,11.07c-4.354,0-5.08-2.723-4.172-7.439l3.084-17.598
	h-8.709l-3.447,19.59c-1.629,8.531,1.635,12.886,9.436,12.878c5.441,0,9.974-2.533,11.605-4.169l-0.723,3.629h7.801l1.531-8.705
	c1.542-8.793,2.939-16.762,4.087-23.223h-8.34L509.804,301.367z"/>
<path fill="#FFFFFF" d="M422.918,302.819c0.727-5.8,4.353-9.975,9.072-9.975c6.164,0,7.619,5.442,6.89,9.795
	c-1.087,6.894-5.443,9.794-9.431,9.798C424.914,312.438,422.189,308.626,422.918,302.819 M419.471,318.422l0.91-4.177
	c1.087,2.9,4.171,5.264,9.609,5.264c5.442,0,15.058-3.265,17.418-16.869c1.635-9.791-4.354-16.327-12.154-16.327
	c-1.09,0-5.081-0.182-9.795,3.086l2.902-15.053l-8.162-0.006l-8.164,44.082H419.471z"/>
<path fill="#FFFFFF" d="M400.064,309.715c-0.365,2.54-2.906,3.626-6.713,3.626c-2.886,0-5.776-1.079-6.516-1.446l-0.617,3.523
	l-0.493,2.812c1.634,0.727,4.362,1.638,7.81,1.646c8.886-0.008,14.693-3.453,16.138-9.434c3.271-13.424-19.586-8.528-18.135-15.06
	c0.545-2.538,3.81-3.086,5.622-3.086c4.898,0,8.345,1.636,10.157,4.355l5.443-4.533c-3.445-5.441-11.425-6.355-13.969-6.347
	c-2.536,0-4.895,0.359-7.616,1.267l-3.046,17.432C393.21,306.807,400.604,305.917,400.064,309.715"/>
<path fill="#FFFFFF" d="M459.378,302.278c1.085-5.627,4.72-9.253,9.612-9.253c5.988,0.002,7.617,4.719,6.715,10.157
	c-0.727,4.9-3.991,9.798-9.797,9.798C460.286,312.984,458.293,308.077,459.378,302.278 M465.003,319.868
	c11.429,0,17.592-5.801,19.407-16.319c2.174-12.34-6.896-17.237-14.148-17.237c-13.062,0-18.502,9.073-19.589,16.328
	C449.4,310.798,452.484,319.868,465.003,319.868"/>
<path fill="#FFFFFF" d="M565.21,388.615c6.894,0,9.071,4.167,9.794,5.984h-16.323C558.681,393.511,558.315,388.615,565.21,388.615
	 M581.172,404.216c-0.727,0.901-2.904,3.985-9.434,3.989c-7.618-0.004-10.702-5.627-11.607-8.166h26.664
	c-1.634-7.98-6.35-11.605-7.981-12.876c-0.048-0.036-0.088-0.062-0.127-0.092l-11.689-4.271c-1.997-0.302-3.443-0.355-3.782-0.355
	c-9.796,0-16.505,5.436-14.15,16.323c2.359,10.886,10.345,16.872,23.039,16.866c1.508,0,3.197-0.169,4.949-0.6l9.566-8.027
	L581.172,404.216z"/>
<path fill="#FFFFFF" d="M506.44,390.247l-1.815-7.255c0,0-0.543-0.182-1.451-0.182c-1.996,0-7.619,0.721-9.254,5.439l-1.086-4.536
	l-8.209,0.004l5.539,31.017l9.381-0.004l-2.901-13.604C495.012,393.329,497.366,390.427,506.44,390.247"/>
<path fill="#FFFFFF" d="M526.937,389.698c5.621-0.179,6.89,4.173,7.799,7.44l4.897,17.592h9.976l-6.345-21.948
	c-1.815-5.98-6.17-10.337-14.331-10.337c-1.636,0-8.709,0.547-10.341,5.436l-1.272-4.167l-9.429,0.004l7.255,31.013h10.157
	l-3.627-13.783C520.224,395.325,521.133,389.878,526.937,389.698"/>
<path fill="#FFFFFF" d="M422.809,243.381l-9.011,3.282l-2.044-14.088c-0.74-4.601-1.891-7.715-6.711-7.516
	c-5.988,0.252-7.919,5.837-7.227,12.12l0.744,9.468h-9.648l-1.862-27.293h8.729l0.554,3.9c1.668-2.597,5.458-4.893,10.84-5.077
	c5.412-0.185,10.23,1.945,12.1,5.288L422.809,243.381z"/>
<path fill="#FFFFFF" d="M256.614,215.149l0.114-0.04h7.877c5.569,0,9.279,2.041,9.097,5.386c-0.189,5.011-5.571,6.122-12.997,6.12
	h-6.495L256.614,215.149z M253.093,232.748l8.91-0.004l6.499,13.92l11.322,0.003l-8.168-15.222
	c7.426-1.115,11.881-5.938,12.071-10.955c0.181-6.377-5.546-9.71-12.954-10.53c-0.056-0.006-24.933,9.15-24.933,9.15l-6.114,27.557
	h10.585L253.093,232.748z"/>
<polygon fill="#FFFFFF" points="319.095,219.378 325.958,246.667 337.655,246.664 352.134,219.378 342.484,219.378 333.2,238.687 
	328.932,219.378 "/>
<path fill="#FFFFFF" d="M293.046,237.567c0.931-3.71,8.728-3.525,14.667-4.267l-0.182,2.229c-0.188,3.157-2.976,6.123-9.658,6.123
	C293.604,241.652,292.491,239.797,293.046,237.567 M307.531,243.697v2.966h9.835c-0.93-1.666-0.93-2.595-0.93-4.269l0.742-14.476
	c0.371-5.569-3.896-9.84-15.037-9.84c-14.657-0.004-15.774,7.423-15.96,8.725h9.092c0.19-1.113,0.75-3.526,6.683-3.526
	c5.942,0,6.311,3.155,6.128,5.379c-6.868,1.307-23.573-0.181-24.689,10.03c-0.556,5.011,3.154,8.719,12.064,8.719
	C301.035,247.405,305.485,245.736,307.531,243.697"/>
<path fill="#FFFFFF" d="M368.415,223.089c6.312,0,6.683,4.643,6.683,5.942H360.25C360.804,227.174,363.034,223.089,368.415,223.089
	 M384.932,234.042c0.004-6.685-1.854-16.333-15.772-16.335c-10.399-0.004-19.124,6.868-19.493,17.265
	c-0.187,7.61,5.943,12.995,16.892,12.995c8.168,0,14.292-2.784,16.519-5.014L379,237.756c-1.488,1.113-5.203,3.708-11.329,3.708
	c-8.535,0-8.722-5.753-8.351-7.422H384.932z"/>
</svg>
